<svg id="Layer_1" enable-background="new 0 0 512 512" viewBox="0 0 512 512" xmlns="http://www.w3.org/2000/svg"><g clip-rule="evenodd" fill-rule="evenodd"><path d="m309.36 35.23c-12.27 3.23-23.84 8.08-34.53 14.31-2.58 1.5-5.5 1.59-8.16.23l-20.1-10.23c-3.34-1.7-7.23-1.08-9.86 1.56l-20.41 20.41c-2.64 2.64-3.26 6.52-1.56 9.86l10.23 20.1c1.36 2.66 1.28 5.58-.23 8.16-6.24 10.69-11.08 22.28-14.31 34.53-.77 2.86-2.78 4.99-5.61 5.92l-21.43 6.97c-3.57 1.13-5.87 4.34-5.87 8.08v28.86c0 3.74 2.3 6.92 5.87 8.08l21.46 6.97c2.83.91 4.82 3.03 5.58 5.92 3.23 12.25 8.08 23.84 14.31 34.53 1.5 2.58 1.59 5.5.23 8.14l-10.23 20.13c-1.7 3.32-1.08 7.23 1.56 9.86l20.41 20.41c2.64 2.64 6.52 3.26 9.86 1.56l20.1-10.23c2.66-1.36 5.58-1.28 8.16.23 10.69 6.24 22.25 11.08 34.53 14.31 2.86.74 4.99 2.75 5.92 5.58l6.97 21.46c1.13 3.54 4.34 5.87 8.08 5.87h28.86c3.74 0 6.92-2.32 8.08-5.87l6.97-21.46c.91-2.83 3.03-4.85 5.92-5.58 12.25-3.23 23.84-8.08 34.53-14.31 2.58-1.5 5.5-1.59 8.14-.23l20.13 10.23c3.32 1.7 7.23 1.08 9.86-1.56l20.41-20.41c2.64-2.64 3.26-6.55 1.56-9.86l-10.26-20.13c-1.33-2.64-1.25-5.56.26-8.14 6.24-10.69 11.08-22.28 14.31-34.53.74-2.89 2.75-5.02 5.58-5.92l21.46-6.97c3.54-1.16 5.87-4.34 5.87-8.08v-28.86c0-3.74-2.32-6.95-5.87-8.08l-21.46-6.97c-2.83-.94-4.85-3.06-5.58-5.92-3.23-12.25-8.08-23.84-14.31-34.53-1.5-2.58-1.59-5.5-.26-8.16l10.26-20.1c1.7-3.34 1.08-7.23-1.56-9.86l-20.41-20.41c-2.64-2.64-6.55-3.26-9.86-1.56l-20.1 10.23c-2.66 1.36-5.58 1.28-8.16-.23-10.69-6.24-22.28-11.08-34.53-14.31-2.89-.77-5.02-2.75-5.92-5.58l-6.97-21.46c-1.16-3.57-4.34-5.87-8.08-5.87h-28.86c-3.74 0-6.94 2.3-8.08 5.87l-6.97 21.46c-.95 2.83-3.07 4.82-5.93 5.58z" fill="#bec7cf"/><path d="m309.36 35.23c-10.94 2.86-21.34 7.06-31.04 12.33l4.34 2.21c2.64 1.36 5.56 1.28 8.14-.23 10.69-6.24 22.28-11.08 34.53-14.31 2.89-.77 5.02-2.75 5.92-5.58l6.97-21.46c1.16-3.57 4.34-5.87 8.11-5.87h-15.99c-3.74 0-6.94 2.3-8.08 5.87l-6.97 21.46c-.95 2.83-3.07 4.82-5.93 5.58zm-57.72 6.89-5.07-2.58c-3.34-1.7-7.23-1.08-9.86 1.56l-20.41 20.41c-2.64 2.64-3.26 6.52-1.56 9.86l10.23 20.1c1.36 2.66 1.28 5.58-.23 8.16-6.24 10.69-11.08 22.28-14.31 34.53-.77 2.86-2.78 4.99-5.61 5.92l-21.43 6.97c-3.57 1.13-5.87 4.34-5.87 8.08v28.86c0 3.74 2.3 6.92 5.87 8.08l21.46 6.97c2.83.91 4.82 3.03 5.58 5.92 3.23 12.25 8.08 23.84 14.31 34.53 1.5 2.58 1.59 5.5.23 8.14l-10.23 20.13c-1.7 3.32-1.08 7.23 1.56 9.86l20.41 20.41c2.64 2.64 6.52 3.26 9.86 1.56l5.07-2.58-19.36-19.39c-2.66-2.64-3.29-6.55-1.59-9.86l10.26-20.13c1.36-2.64 1.28-5.56-.23-8.14-6.24-10.69-11.11-22.28-14.31-34.53-.77-2.89-2.78-5.02-5.61-5.92l-21.43-6.97c-3.57-1.16-5.9-4.34-5.9-8.08v-28.86c0-3.74 2.32-6.95 5.9-8.08l21.43-6.97c2.83-.94 4.85-3.06 5.61-5.92 3.2-12.25 8.05-23.84 14.31-34.53 1.5-2.58 1.59-5.5.23-8.16l-10.26-20.1c-1.7-3.34-1.08-7.23 1.59-9.86zm26.68 249.42c9.69 5.3 20.1 9.47 31.04 12.36 2.86.74 4.99 2.75 5.92 5.58l6.97 21.46c1.13 3.54 4.34 5.87 8.08 5.87h15.99c-3.77 0-6.94-2.32-8.11-5.87l-6.97-21.46c-.91-2.83-3.03-4.85-5.92-5.58-12.25-3.23-23.84-8.08-34.53-14.31-2.55-1.5-5.47-1.59-8.14-.23z" fill="#abb3ba"/><path d="m409.13 169.56c0 35.55-28.83 64.38-64.37 64.38-35.57 0-64.4-28.83-64.4-64.38 0-35.57 28.83-64.4 64.4-64.4 35.55 0 64.37 28.83 64.37 64.4z" fill="#eaf6ff"/><path d="m351.9 233.54c-2.35.25-4.73.4-7.14.4-35.57 0-64.4-28.83-64.4-64.38 0-35.57 28.83-64.4 64.4-64.4 2.41 0 4.79.14 7.14.4-32.2 3.57-57.23 30.87-57.23 64.01 0 33.13 25.03 60.43 57.23 63.97z" fill="#d3dde6"/><path d="m178.65 193.88c29.28 0 53.15-23.9 53.15-53.18s-23.87-53.15-53.15-53.15c-29.31 0-53.18 23.87-53.18 53.15 0 29.29 23.87 53.18 53.18 53.18z" fill="#fbbd80"/><path d="m178.65 87.56c1.81 0 3.63.08 5.41.25-26.82 2.72-47.76 25.37-47.76 52.89 0 27.55 20.95 50.2 47.76 52.89-1.79.2-3.6.28-5.41.28-29.37 0-53.18-23.81-53.18-53.18s23.81-53.13 53.18-53.13z" fill="#e2aa73"/><path d="m82.7 352.68h191.88c6.29 0 11.42-5.13 11.42-11.42v-63.69c0-41.33-33.79-75.12-75.12-75.12h-64.49c-41.3 0-75.12 33.79-75.12 75.12v63.69c0 6.29 5.13 11.42 11.43 11.42z" fill="#0593fc"/><path d="m82.7 352.68h14.34c-6.29 0-11.42-5.13-11.42-11.42v-63.69c0-41.33 33.79-75.12 75.12-75.12h-14.34c-41.3 0-75.12 33.79-75.12 75.12v63.69c-.01 6.29 5.12 11.42 11.42 11.42z" fill="#0584e3"/><path d="m125.93 352.68h16.53v-69.96c0-4.56-3.69-8.25-8.25-8.25s-8.28 3.69-8.28 8.25z" fill="#056bb8"/><path d="m214.82 352.68h16.53v-69.96c0-4.56-3.71-8.25-8.28-8.25-4.54 0-8.25 3.69-8.25 8.25z" fill="#056bb8"/><path d="m305.36 507.94 50.17-50.17c2.32-2.32 2.32-6.09 0-8.39l-50.17-50.17c-1.73-1.73-4.2-2.24-6.46-1.28-2.27.94-3.66 3-3.66 5.47v27.52c0 3.23-2.58 5.87-5.78 5.95-49.8 1.19-74.61 10.69-85.95-51.87-3.32 95.75 29.08 86.8 85.66 85.46 1.64-.03 3.09.54 4.28 1.7s1.79 2.58 1.79 4.25v27.33c0 2.44 1.39 4.54 3.66 5.47 2.26.94 4.73.45 6.46-1.27z" fill="#70da40"/><path d="m51.91 507.94-50.17-50.18c-2.32-2.32-2.32-6.09 0-8.39l50.17-50.17c1.73-1.73 4.2-2.24 6.46-1.28 2.27.94 3.66 3 3.66 5.47v27.52c0 3.23 2.58 5.87 5.78 5.95 49.83 1.19 74.61 10.69 85.95-51.87 3.32 95.75-29.08 86.8-85.66 85.46-1.64-.03-3.09.54-4.28 1.7s-1.79 2.58-1.79 4.25v27.33c0 2.44-1.39 4.54-3.66 5.47-2.26.95-4.73.46-6.46-1.26z" fill="#70da40"/><g fill="#65c43a"><path d="m51.91 507.94-50.17-50.18c-2.32-2.32-2.32-6.09 0-8.39l50.17-50.17c1.73-1.73 4.2-2.24 6.46-1.28 2.27.94 3.66 3 3.66 5.47v.54l-45.44 45.44c-2.3 2.3-2.3 6.07 0 8.39l45.44 45.44v.54c0 2.44-1.39 4.54-3.66 5.47-2.26.94-4.73.45-6.46-1.27zm56.87-70.05c23.53-1.25 37.3-10.63 44.99-52.89.57 16.98.03 30.67-1.56 41.7-10.21 10.94-24.3 11.87-43.43 11.19zm-3.63 33.28c-7.4.28-15.59 0-24.49-.31.71-.28 1.5-.4 2.32-.4 7.85.2 15.28.54 22.17.71z"/><path d="m305.36 507.94 4.73-4.73v-26.79c0-1.67-.6-3.09-1.79-4.25-1.16-1.16-2.61-1.73-4.28-1.7-4.31.11-8.5.26-12.56.4.74.28 1.39.71 1.98 1.3 1.19 1.16 1.79 2.58 1.79 4.25v27.33c0 2.44 1.39 4.54 3.66 5.47s4.74.44 6.47-1.28zm4.73-104.01-4.73-4.73c-1.73-1.73-4.2-2.24-6.46-1.28-2.27.94-3.66 3-3.66 5.47v27.52c0 3.23-2.58 5.87-5.78 5.95-9.61.23-18.28.77-26.11 1.02 11.28.62 24.8-.65 40.96-1.02 3.23-.08 5.78-2.72 5.78-5.95zm-90.17 22.76c-7.26-7.82-12.59-20.69-16.41-41.7-2.83 82.43 20.78 87.28 63.47 86.17-25.43-.95-41.84-8.58-47.06-44.47z"/></g></g></svg>