<?xml version="1.0" encoding="UTF-8"?><svg id="Layer_1" xmlns="http://www.w3.org/2000/svg" width="116.43" height="111.83" viewBox="0 0 116.43 111.83"><defs><style>.cls-1{fill-rule:evenodd;}</style></defs><path class="cls-1" d="M37.48,45.68l.95,2.32c.05.11.15.19.27.2l2.5.19c.13,0,.24.09.28.22.04.13,0,.26-.1.34l-1.92,1.62c-.09.08-.13.2-.1.32l.6,2.44c.03.13-.02.26-.12.33s-.24.08-.35.01l-2.14-1.32c-.11-.07-.23-.07-.34,0l-2.14,1.32c-.11.07-.25.06-.35-.01s-.15-.2-.12-.33l.6-2.44c.03-.12,0-.24-.1-.32l-1.92-1.62c-.1-.09-.14-.22-.1-.34s.15-.21.28-.22l2.5-.19c.12,0,.22-.08.27-.2l.95-2.32c.05-.12.16-.2.29-.2s.24.08.29.2h0ZM90.62,43.49l1.4-2.04-1.86-1.28-1.4,2.04,1.86,1.28ZM68.87,68.75l-.5,5.18,4.65-2.33-4.15-2.85ZM42.86,43.85c-1.45-1.45-3.46-2.35-5.68-2.35s-4.22.9-5.68,2.35-2.35,3.46-2.35,5.68.9,4.22,2.35,5.68c1.45,1.45,3.46,2.35,5.68,2.35s4.22-.9,5.68-2.35c1.45-1.45,2.35-3.46,2.35-5.68s-.9-4.22-2.35-5.68h0ZM37.19,39.52c-2.76,0-5.27,1.12-7.08,2.93s-2.93,4.31-2.93,7.08,1.12,5.27,2.93,7.08c1.81,1.81,4.31,2.93,7.08,2.93s5.27-1.12,7.08-2.93,2.93-4.31,2.93-7.08-1.12-5.27-2.93-7.08-4.31-2.93-7.08-2.93h0ZM32.94,64c-.12.01-.24.03-.36.04-.81.1-1.61.2-2.41-.19-.8-.39-1.21-1.09-1.62-1.79-.12-.21-.25-.43-.38-.6l-3.34,5.86,2.67-.57h0c.49-.1.98.17,1.14.65l.87,2.58,3.42-5.99h0ZM46.2,61.46c-.13.18-.25.39-.38.6-.41.7-.82,1.4-1.62,1.79-.8.39-1.6.29-2.41.19-.12-.01-.24-.03-.36-.04l3.42,5.99.87-2.58c.16-.48.66-.76,1.14-.65h0s2.67.56,2.67.56l-3.34-5.86h0ZM79.61,51.88l6.32-9.21.89.61h0s0,0,0,0l3.49,2.39h0s0,0,0,0l.89.61-.38.55h0s0,0,0,0l-8.18,11.93-5.28-3.62,2.16-3.15s.05-.07.07-.11h0ZM77.9,65.68l-3.2,4.66-5.28-3.62,6.83-9.95,5.28,3.62-3.55,5.18s-.05.07-.07.11h0ZM34.27,36.97s-.08.02-.13.03c-.62.13-1.21.05-1.8-.02-.52-.06-1.04-.13-1.3,0-.26.13-.52.57-.78,1.02-.31.54-.63,1.07-1.13,1.48-.51.41-1.1.6-1.7.79-.48.15-.96.31-1.15.53-.18.22-.23.73-.27,1.24-.06.62-.12,1.24-.4,1.83-.29.59-.73,1.01-1.18,1.43-.38.36-.77.73-.84,1.03-.07.31.11.81.29,1.32.21.6.43,1.21.43,1.88s-.21,1.28-.43,1.88c-.18.51-.36,1.02-.29,1.32.07.31.46.67.84,1.03.45.42.89.85,1.18,1.43.29.59.35,1.21.4,1.83.05.51.09,1.01.27,1.24.18.23.66.38,1.15.53.27.09.54.17.79.28h0s.03.01.04.02c.3.13.59.28.86.49.5.41.82.94,1.13,1.48.26.44.52.89.78,1.02.26.13.78.06,1.3,0,.59-.07,1.19-.15,1.8-.02.04,0,.09.02.13.03.61.15,1.12.48,1.63.81.46.3.93.6,1.29.6s.82-.3,1.29-.6c.52-.34,1.04-.67,1.67-.82.65-.15,1.27-.07,1.89,0,.52.06,1.04.13,1.3,0,.26-.13.52-.57.78-1.02.31-.54.63-1.07,1.13-1.48.27-.21.55-.37.86-.49.02,0,.03-.01.05-.02.26-.11.53-.19.79-.28.48-.15.96-.31,1.15-.53.18-.22.23-.73.27-1.24.06-.62.12-1.24.4-1.83.29-.59.73-1.01,1.18-1.43.38-.36.77-.73.84-1.03.07-.31-.11-.81-.29-1.32-.21-.6-.43-1.21-.43-1.88s.21-1.28.43-1.88c.18-.51.36-1.02.29-1.32-.07-.31-.46-.67-.84-1.03-.45-.42-.89-.85-1.18-1.43-.29-.59-.35-1.21-.4-1.83-.05-.51-.09-1.01-.27-1.24-.18-.23-.66-.38-1.15-.53-.59-.19-1.19-.38-1.7-.79-.5-.41-.82-.94-1.13-1.48-.26-.44-.52-.89-.78-1.02-.26-.13-.78-.06-1.3,0-.62.08-1.24.15-1.89,0-.63-.15-1.15-.48-1.67-.82-.46-.3-.93-.6-1.29-.6s-.82.3-1.29.6c-.51.33-1.02.66-1.63.81h0ZM39.9,84.95v-3.93c0-.19-.08-.37-.21-.49s-.3-.21-.49-.21h-3.12l3.82,4.63ZM30.41,72.42l2.58-4.53v11.47s0,0,0,0h0s0,.02,0,.02h0s0,.02,0,.02h0s0,.03,0,.05h0c0,.06.02.12.04.17,0,.02.02.05.02.07h0s.02.04.03.07h0s.01.03.02.04h0s.01.02.01.02h0s.01.02.01.02h0s.02.04.04.06h0s.02.03.03.04h0s0,0,0,0h.01s0,.02,0,.02h0s.01.02.01.02h0s0,0,0,0c0,.01.02.02.03.03h0s0,0,0,0h0s6.65,8.07,6.65,8.07c.2.24.48.36.76.36h0s36.37,0,36.37,0c.74,0,1.41-.3,1.89-.79s.79-1.16.79-1.9v-19.28l2.58-3.77v23.67c0,1.31-.54,2.51-1.4,3.37-.87.87-2.06,1.4-3.37,1.4h-42.37c-1.31,0-2.51-.54-3.37-1.4s-1.4-2.06-1.4-3.37v-13.98h0ZM45.18,29.84v-2.72h-9.99c-1.31,0-2.51.54-3.37,1.4s-1.4,2.06-1.4,3.37v3.21c.72-.27,1.44-.18,2.17-.09.14.02.28.03.42.05v-2.54c0-.74.3-1.41.79-1.89.49-.49,1.16-.79,1.9-.79h9.5ZM67.56,31.82v.06c0,.55-.44.99-.99.99h-20.39c-.55,0-.99-.44-.99-.99v-.06h-9.5c-.19,0-.37.08-.49.21s-.21.3-.21.49v1.88c.66-.42,1.34-.82,2.21-.82.93,0,1.65.46,2.36.92.38.24.76.49,1.05.56.3.07.75.01,1.2-.04.81-.1,1.61-.2,2.41.19.8.39,1.21,1.09,1.62,1.79.22.38.44.75.67.93.23.18.64.31,1.05.45.77.25,1.54.49,2.09,1.18.55.69.63,1.49.7,2.3.04.44.08.88.21,1.14.13.26.45.56.77.87.6.56,1.2,1.13,1.4,2.02.2.87-.07,1.65-.35,2.43-.15.44-.31.88-.31,1.22s.16.78.31,1.22c.28.79.55,1.56.35,2.43-.21.88-.81,1.45-1.4,2.02-.32.31-.64.61-.77.87-.13.26-.17.7-.21,1.14-.07.81-.15,1.61-.7,2.3-.45.56-1.05.83-1.68,1.04l4.37,7.67c.13.21.19.47.13.73-.11.53-.64.88-1.17.76l-3.97-.84-1.29,3.82c-.07.23-.23.43-.45.56-.47.27-1.08.1-1.35-.37l-4.73-8.29c-.69.45-1.4.89-2.31.89s-1.55-.4-2.21-.82v13.69h4.23c.74,0,1.41.3,1.9.79s.79,1.16.79,1.9v5.44h35.18c.19,0,.37-.08.49-.21s.21-.3.21-.49v-16.39l-1.99,2.9c-.11.16-.26.28-.43.35l-7.65,3.84c-.17.09-.37.14-.57.12-.54-.05-.94-.53-.89-1.08l.83-8.57c0-.18.06-.36.17-.51l7.95-11.58h0s0,0,0,0l2.58-3.77v-18.56c0-.19-.08-.37-.21-.49s-.3-.21-.49-.21h-9.5,0ZM67.56,27.11v2.72h9.5c.74,0,1.41.3,1.89.79s.79,1.16.79,1.89v15.67l2.58-3.77v-12.53c0-1.31-.54-2.51-1.4-3.37s-2.06-1.4-3.37-1.4h-9.99,0ZM61.52,22.88c-.21-1.04-.73-1.98-1.46-2.69-.95-.94-2.25-1.52-3.69-1.52s-2.74.58-3.69,1.52c-.73.72-1.25,1.65-1.46,2.69h-5.05c-.55,0-.99.44-.99.99v1.25h-9.99c-1.86,0-3.55.76-4.77,1.98-1.22,1.22-1.98,2.91-1.98,4.77v5.31c-.18.3-.36.58-.54.72-.23.18-.64.31-1.05.45-.77.25-1.54.49-2.09,1.18-.55.69-.63,1.49-.7,2.3-.04.44-.08.88-.21,1.14-.13.26-.45.56-.77.87-.6.56-1.2,1.13-1.4,2.02-.2.87.07,1.65.35,2.43.15.44.31.88.31,1.22s-.16.78-.31,1.22c-.28.79-.55,1.56-.35,2.43.21.88.81,1.45,1.4,2.02.32.31.64.61.77.87.13.26.17.7.21,1.14.07.81.15,1.61.7,2.3.45.56,1.05.83,1.68,1.04l-4.37,7.67c-.13.21-.19.47-.13.73.11.53.64.88,1.17.76l3.97-.84,1.29,3.82c.02.07.05.13.08.19v13.51c0,1.86.76,3.55,1.98,4.77s2.91,1.98,4.77,1.98h42.37c1.86,0,3.55-.76,4.77-1.98,1.22-1.22,1.98-2.91,1.98-4.77v-26.56l7.59-11.06.57.39s.06.04.09.06c.15.12.25.29.28.47.03.18,0,.38-.1.55-.02.03-.04.06-.06.09l-3.77,5.5c-.31.45-.19,1.07.26,1.37s1.07.19,1.37-.26l3.81-5.55c.43-.62.56-1.36.43-2.05-.13-.69-.52-1.34-1.14-1.77l-.63-.43.38-.55c.31-.45.19-1.07-.26-1.37l-.89-.61,1.96-2.86c.31-.45.19-1.07-.26-1.37l-3.5-2.4c-.45-.31-1.07-.19-1.37.26l-1.96,2.85-.89-.61c-.45-.31-1.07-.19-1.37.26l-.54.79v-9.64c0-1.86-.76-3.55-1.98-4.77-1.22-1.22-2.91-1.98-4.77-1.98h-9.99v-1.25c0-.55-.44-.99-.99-.99h-5.05ZM65.58,24.87v6.03h-18.41v-6.03h4.94c.54,0,.98-.44.99-.98.01-.89.38-1.7.98-2.29.59-.58,1.4-.94,2.3-.94s1.71.36,2.3.94c.58.57.94,1.35.98,2.21,0,.02,0,.04,0,.06,0,.55.44.99.99.99h4.94ZM52.41,41.45c-.55,0-.99-.44-.99-.99s.44-.99.99-.99h18.91c.55,0,.99.44.99.99s-.44.99-.99.99h-18.91ZM55.92,48.39c-.55,0-.99-.44-.99-.99s.44-.99.99-.99h15.4c.55,0,.99.44.99.99s-.44.99-.99.99h-15.4ZM55.26,55.33c-.55,0-.99-.44-.99-.99s.44-.99.99-.99h16.06c.55,0,.99.44.99.99s-.44.99-.99.99h-16.06ZM52.26,62.27c-.55,0-.99-.44-.99-.99s.44-.99.99-.99h15.79c.55,0,.99.44.99.99s-.44.99-.99.99h-15.79ZM54.64,69.21h9.44c.55,0,.99-.44.99-.99s-.44-.99-.99-.99h-9.44c-.55,0-.99.44-.99.99s.44.99.99.99ZM39.74,76.15h23.02c.55,0,.99-.44.99-.99s-.44-.99-.99-.99h-23.02c-.55,0-.99.44-.99.99s.44.99.99.99Z"/></svg>